<mxfile host="app.diagrams.net" modified="2022-07-12T17:22:44.957Z" agent="5.0 (Macintosh; Intel Mac OS X 10_15_7) AppleWebKit/605.1.15 (KHTML, like Gecko) Version/15.5 Safari/605.1.15" etag="S-P8S4pHSB3gVoZ68CL3" version="20.1.1" type="github">
  <diagram id="lxMBXT2_lKhhUB70dSE1" name="Page-1">
    <mxGraphModel dx="1613" dy="467" grid="1" gridSize="10" guides="1" tooltips="1" connect="1" arrows="1" fold="1" page="1" pageScale="1" pageWidth="827" pageHeight="1169" math="0" shadow="0">
      <root>
        <mxCell id="0" />
        <mxCell id="1" parent="0" />
        <mxCell id="rYZRIXIXnIxcv8ydCSID-1" value="Actor" style="shape=umlActor;verticalLabelPosition=bottom;verticalAlign=top;html=1;outlineConnect=0;" parent="1" vertex="1">
          <mxGeometry x="440" y="17" width="30" height="60" as="geometry" />
        </mxCell>
        <mxCell id="rYZRIXIXnIxcv8ydCSID-2" value="Create &amp;nbsp;ShortenedURL Service" style="rounded=1;whiteSpace=wrap;html=1;fillColor=#fff2cc;strokeColor=#d6b656;" parent="1" vertex="1">
          <mxGeometry x="240" y="250" width="120" height="60" as="geometry" />
        </mxCell>
        <mxCell id="rYZRIXIXnIxcv8ydCSID-3" value="Redirect ShortenedURL Service" style="rounded=1;whiteSpace=wrap;html=1;fillColor=#fff2cc;strokeColor=#d6b656;" parent="1" vertex="1">
          <mxGeometry x="620" y="247" width="120" height="60" as="geometry" />
        </mxCell>
        <mxCell id="rYZRIXIXnIxcv8ydCSID-4" value="" style="endArrow=classic;html=1;rounded=0;entryX=0.5;entryY=0;entryDx=0;entryDy=0;edgeStyle=orthogonalEdgeStyle;" parent="1" target="rYZRIXIXnIxcv8ydCSID-2" edge="1">
          <mxGeometry width="50" height="50" relative="1" as="geometry">
            <mxPoint x="420" y="170" as="sourcePoint" />
            <mxPoint x="430" y="260" as="targetPoint" />
          </mxGeometry>
        </mxCell>
        <mxCell id="rYZRIXIXnIxcv8ydCSID-5" value="" style="endArrow=classic;html=1;rounded=0;entryX=0.25;entryY=0;entryDx=0;entryDy=0;edgeStyle=orthogonalEdgeStyle;" parent="1" source="rYZRIXIXnIxcv8ydCSID-7" target="rYZRIXIXnIxcv8ydCSID-3" edge="1">
          <mxGeometry width="50" height="50" relative="1" as="geometry">
            <mxPoint x="520" y="170" as="sourcePoint" />
            <mxPoint x="310" y="220" as="targetPoint" />
          </mxGeometry>
        </mxCell>
        <mxCell id="rYZRIXIXnIxcv8ydCSID-7" value="API Gateway" style="outlineConnect=0;dashed=0;verticalLabelPosition=bottom;verticalAlign=top;align=center;html=1;shape=mxgraph.aws3.api_gateway;fillColor=#D9A741;gradientColor=none;" parent="1" vertex="1">
          <mxGeometry x="425" y="140" width="60" height="70" as="geometry" />
        </mxCell>
        <mxCell id="rYZRIXIXnIxcv8ydCSID-9" value="" style="endArrow=classic;html=1;rounded=0;entryX=0.5;entryY=0;entryDx=0;entryDy=0;entryPerimeter=0;" parent="1" source="rYZRIXIXnIxcv8ydCSID-1" target="rYZRIXIXnIxcv8ydCSID-7" edge="1">
          <mxGeometry width="50" height="50" relative="1" as="geometry">
            <mxPoint x="380" y="200" as="sourcePoint" />
            <mxPoint x="430" y="150" as="targetPoint" />
          </mxGeometry>
        </mxCell>
        <mxCell id="rYZRIXIXnIxcv8ydCSID-10" value="Key Generation Service" style="rounded=1;whiteSpace=wrap;html=1;fillColor=#f8cecc;strokeColor=#b85450;" parent="1" vertex="1">
          <mxGeometry x="100" y="430" width="120" height="60" as="geometry" />
        </mxCell>
        <mxCell id="rYZRIXIXnIxcv8ydCSID-11" value="" style="endArrow=classic;html=1;rounded=0;exitX=0;exitY=0.5;exitDx=0;exitDy=0;entryX=0.5;entryY=0;entryDx=0;entryDy=0;edgeStyle=orthogonalEdgeStyle;" parent="1" source="rYZRIXIXnIxcv8ydCSID-2" target="rYZRIXIXnIxcv8ydCSID-10" edge="1">
          <mxGeometry width="50" height="50" relative="1" as="geometry">
            <mxPoint x="380" y="360" as="sourcePoint" />
            <mxPoint x="430" y="310" as="targetPoint" />
          </mxGeometry>
        </mxCell>
        <mxCell id="rYZRIXIXnIxcv8ydCSID-12" value="&lt;span style=&quot;&quot;&gt;Cached Pre-Generated Keys&lt;/span&gt;" style="outlineConnect=0;dashed=0;verticalLabelPosition=bottom;verticalAlign=top;align=center;html=1;shape=mxgraph.aws3.redis;fillColor=#2E73B8;gradientColor=none;" parent="1" vertex="1">
          <mxGeometry x="30" y="580" width="60" height="63" as="geometry" />
        </mxCell>
        <mxCell id="rYZRIXIXnIxcv8ydCSID-13" value="" style="endArrow=classic;html=1;rounded=0;exitX=0;exitY=0.5;exitDx=0;exitDy=0;entryX=0.5;entryY=0;entryDx=0;entryDy=0;entryPerimeter=0;edgeStyle=orthogonalEdgeStyle;" parent="1" source="rYZRIXIXnIxcv8ydCSID-10" target="rYZRIXIXnIxcv8ydCSID-12" edge="1">
          <mxGeometry width="50" height="50" relative="1" as="geometry">
            <mxPoint x="380" y="610" as="sourcePoint" />
            <mxPoint x="430" y="560" as="targetPoint" />
          </mxGeometry>
        </mxCell>
        <mxCell id="rYZRIXIXnIxcv8ydCSID-14" value="Unused Keys ( Pre-Generated )" style="shape=cylinder3;whiteSpace=wrap;html=1;boundedLbl=1;backgroundOutline=1;size=15;fillColor=#dae8fc;strokeColor=#6c8ebf;" parent="1" vertex="1">
          <mxGeometry x="120" y="680" width="80" height="90" as="geometry" />
        </mxCell>
        <mxCell id="rYZRIXIXnIxcv8ydCSID-15" value="Used Keys ( Pre-Generated )" style="shape=cylinder3;whiteSpace=wrap;html=1;boundedLbl=1;backgroundOutline=1;size=15;fillColor=#dae8fc;strokeColor=#6c8ebf;" parent="1" vertex="1">
          <mxGeometry x="240" y="680" width="80" height="90" as="geometry" />
        </mxCell>
        <mxCell id="rYZRIXIXnIxcv8ydCSID-16" value="" style="endArrow=classic;html=1;rounded=0;exitX=0.5;exitY=1;exitDx=0;exitDy=0;entryX=0.5;entryY=0;entryDx=0;entryDy=0;entryPerimeter=0;edgeStyle=orthogonalEdgeStyle;" parent="1" source="rYZRIXIXnIxcv8ydCSID-10" target="rYZRIXIXnIxcv8ydCSID-14" edge="1">
          <mxGeometry width="50" height="50" relative="1" as="geometry">
            <mxPoint x="340" y="590" as="sourcePoint" />
            <mxPoint x="390" y="540" as="targetPoint" />
          </mxGeometry>
        </mxCell>
        <mxCell id="rYZRIXIXnIxcv8ydCSID-17" value="" style="endArrow=classic;html=1;rounded=0;exitX=1;exitY=0.5;exitDx=0;exitDy=0;entryX=0.5;entryY=0;entryDx=0;entryDy=0;entryPerimeter=0;edgeStyle=orthogonalEdgeStyle;" parent="1" source="rYZRIXIXnIxcv8ydCSID-10" target="rYZRIXIXnIxcv8ydCSID-15" edge="1">
          <mxGeometry width="50" height="50" relative="1" as="geometry">
            <mxPoint x="170" y="500" as="sourcePoint" />
            <mxPoint x="160" y="690" as="targetPoint" />
          </mxGeometry>
        </mxCell>
        <mxCell id="rYZRIXIXnIxcv8ydCSID-19" value="Pre-Generated Keys Creation/Update ( Nightly )" style="rounded=1;whiteSpace=wrap;html=1;fillColor=#e1d5e7;strokeColor=#9673a6;" parent="1" vertex="1">
          <mxGeometry x="440" y="790" width="160" height="60" as="geometry" />
        </mxCell>
        <mxCell id="rYZRIXIXnIxcv8ydCSID-20" value="Shortened &lt;br&gt;URLs Cache" style="outlineConnect=0;dashed=0;verticalLabelPosition=bottom;verticalAlign=top;align=center;html=1;shape=mxgraph.aws3.redis;fillColor=#2E73B8;gradientColor=none;" parent="1" vertex="1">
          <mxGeometry x="550" y="430" width="60" height="63" as="geometry" />
        </mxCell>
        <mxCell id="rYZRIXIXnIxcv8ydCSID-21" value="" style="endArrow=classic;html=1;rounded=0;exitX=0;exitY=0.5;exitDx=0;exitDy=0;entryX=0.5;entryY=0;entryDx=0;entryDy=0;entryPerimeter=0;edgeStyle=orthogonalEdgeStyle;" parent="1" source="rYZRIXIXnIxcv8ydCSID-3" target="rYZRIXIXnIxcv8ydCSID-20" edge="1">
          <mxGeometry width="50" height="50" relative="1" as="geometry">
            <mxPoint x="450" y="390" as="sourcePoint" />
            <mxPoint x="500" y="340" as="targetPoint" />
          </mxGeometry>
        </mxCell>
        <mxCell id="rYZRIXIXnIxcv8ydCSID-23" value="" style="endArrow=classic;html=1;rounded=0;exitX=0.5;exitY=1;exitDx=0;exitDy=0;" parent="1" source="rYZRIXIXnIxcv8ydCSID-3" target="rYZRIXIXnIxcv8ydCSID-48" edge="1">
          <mxGeometry width="50" height="50" relative="1" as="geometry">
            <mxPoint x="730" y="430" as="sourcePoint" />
            <mxPoint x="678.5" y="540" as="targetPoint" />
          </mxGeometry>
        </mxCell>
        <mxCell id="rYZRIXIXnIxcv8ydCSID-24" value="If key is NOT found in Cache. And then update Cache." style="text;html=1;strokeColor=none;fillColor=none;align=center;verticalAlign=middle;whiteSpace=wrap;rounded=0;" parent="1" vertex="1">
          <mxGeometry x="680" y="360" width="90" height="30" as="geometry" />
        </mxCell>
        <mxCell id="rYZRIXIXnIxcv8ydCSID-25" value="" style="endArrow=classic;html=1;rounded=0;exitX=0;exitY=0.5;exitDx=0;exitDy=0;entryX=0.663;entryY=1.011;entryDx=0;entryDy=0;entryPerimeter=0;edgeStyle=orthogonalEdgeStyle;" parent="1" source="rYZRIXIXnIxcv8ydCSID-19" target="rYZRIXIXnIxcv8ydCSID-14" edge="1">
          <mxGeometry width="50" height="50" relative="1" as="geometry">
            <mxPoint x="580" y="710" as="sourcePoint" />
            <mxPoint x="630" y="660" as="targetPoint" />
          </mxGeometry>
        </mxCell>
        <mxCell id="rYZRIXIXnIxcv8ydCSID-26" value="" style="endArrow=classic;html=1;rounded=0;exitX=1.006;exitY=0.4;exitDx=0;exitDy=0;entryX=0.5;entryY=1;entryDx=0;entryDy=0;entryPerimeter=0;exitPerimeter=0;edgeStyle=orthogonalEdgeStyle;" parent="1" source="rYZRIXIXnIxcv8ydCSID-19" edge="1">
          <mxGeometry width="50" height="50" relative="1" as="geometry">
            <mxPoint x="430" y="710" as="sourcePoint" />
            <mxPoint x="678.5" y="630" as="targetPoint" />
          </mxGeometry>
        </mxCell>
        <mxCell id="rYZRIXIXnIxcv8ydCSID-27" value="Kafka" style="sketch=0;points=[[0,0,0],[0.25,0,0],[0.5,0,0],[0.75,0,0],[1,0,0],[0,1,0],[0.25,1,0],[0.5,1,0],[0.75,1,0],[1,1,0],[0,0.25,0],[0,0.5,0],[0,0.75,0],[1,0.25,0],[1,0.5,0],[1,0.75,0]];outlineConnect=0;fontColor=#232F3E;gradientColor=#945DF2;gradientDirection=north;fillColor=#5A30B5;strokeColor=#ffffff;dashed=0;verticalLabelPosition=bottom;verticalAlign=top;align=center;html=1;fontSize=12;fontStyle=0;aspect=fixed;shape=mxgraph.aws4.resourceIcon;resIcon=mxgraph.aws4.managed_streaming_for_kafka;" parent="1" vertex="1">
          <mxGeometry x="800" y="370" width="78" height="78" as="geometry" />
        </mxCell>
        <mxCell id="rYZRIXIXnIxcv8ydCSID-28" value="" style="endArrow=classic;html=1;rounded=0;exitX=1;exitY=0.5;exitDx=0;exitDy=0;entryX=0.5;entryY=0;entryDx=0;entryDy=0;entryPerimeter=0;edgeStyle=orthogonalEdgeStyle;" parent="1" source="rYZRIXIXnIxcv8ydCSID-3" target="rYZRIXIXnIxcv8ydCSID-27" edge="1">
          <mxGeometry width="50" height="50" relative="1" as="geometry">
            <mxPoint x="900" y="470" as="sourcePoint" />
            <mxPoint x="950" y="420" as="targetPoint" />
          </mxGeometry>
        </mxCell>
        <mxCell id="rYZRIXIXnIxcv8ydCSID-31" value="Update Key Stats" style="rounded=1;whiteSpace=wrap;html=1;fillColor=#f8cecc;strokeColor=#b85450;" parent="1" vertex="1">
          <mxGeometry x="779" y="490" width="120" height="60" as="geometry" />
        </mxCell>
        <mxCell id="rYZRIXIXnIxcv8ydCSID-32" value="" style="endArrow=classic;html=1;rounded=0;exitX=0.5;exitY=0;exitDx=0;exitDy=0;" parent="1" source="rYZRIXIXnIxcv8ydCSID-31" target="rYZRIXIXnIxcv8ydCSID-27" edge="1">
          <mxGeometry width="50" height="50" relative="1" as="geometry">
            <mxPoint x="890" y="500" as="sourcePoint" />
            <mxPoint x="940" y="450" as="targetPoint" />
          </mxGeometry>
        </mxCell>
        <mxCell id="rYZRIXIXnIxcv8ydCSID-33" value="" style="endArrow=classic;html=1;rounded=0;exitX=0;exitY=0.5;exitDx=0;exitDy=0;edgeStyle=orthogonalEdgeStyle;entryX=1;entryY=0.22;entryDx=0;entryDy=0;entryPerimeter=0;" parent="1" source="rYZRIXIXnIxcv8ydCSID-31" target="rYZRIXIXnIxcv8ydCSID-48" edge="1">
          <mxGeometry width="50" height="50" relative="1" as="geometry">
            <mxPoint x="890" y="500" as="sourcePoint" />
            <mxPoint x="714.355" y="544.35" as="targetPoint" />
          </mxGeometry>
        </mxCell>
        <mxCell id="rYZRIXIXnIxcv8ydCSID-34" value="Update Analytics" style="text;html=1;strokeColor=none;fillColor=none;align=center;verticalAlign=middle;whiteSpace=wrap;rounded=0;" parent="1" vertex="1">
          <mxGeometry x="839" y="330" width="60" height="30" as="geometry" />
        </mxCell>
        <mxCell id="rYZRIXIXnIxcv8ydCSID-36" value="" style="endArrow=classic;html=1;rounded=0;edgeStyle=orthogonalEdgeStyle;entryX=0;entryY=0.5;entryDx=0;entryDy=0;entryPerimeter=0;" parent="1" source="rYZRIXIXnIxcv8ydCSID-2" target="rYZRIXIXnIxcv8ydCSID-48" edge="1">
          <mxGeometry width="50" height="50" relative="1" as="geometry">
            <mxPoint x="460" y="440" as="sourcePoint" />
            <mxPoint x="640" y="580" as="targetPoint" />
          </mxGeometry>
        </mxCell>
        <mxCell id="rYZRIXIXnIxcv8ydCSID-37" value="1. Get Pre-Generated Key" style="text;html=1;strokeColor=none;fillColor=none;align=center;verticalAlign=middle;whiteSpace=wrap;rounded=0;" parent="1" vertex="1">
          <mxGeometry x="60" y="307" width="100" height="30" as="geometry" />
        </mxCell>
        <mxCell id="rYZRIXIXnIxcv8ydCSID-38" value="2. Save ShortenedURL-URL mapping" style="text;html=1;strokeColor=none;fillColor=none;align=center;verticalAlign=middle;whiteSpace=wrap;rounded=0;" parent="1" vertex="1">
          <mxGeometry x="393" y="360" width="100" height="30" as="geometry" />
        </mxCell>
        <mxCell id="rYZRIXIXnIxcv8ydCSID-39" value="Get ShortenedURL Service ( Admin )" style="rounded=1;whiteSpace=wrap;html=1;fillColor=#fff2cc;strokeColor=#d6b656;" parent="1" vertex="1">
          <mxGeometry x="1000" y="250" width="120" height="60" as="geometry" />
        </mxCell>
        <mxCell id="rYZRIXIXnIxcv8ydCSID-40" value="" style="endArrow=classic;html=1;rounded=0;entryX=0.567;entryY=-0.017;entryDx=0;entryDy=0;entryPerimeter=0;edgeStyle=orthogonalEdgeStyle;" parent="1" source="rYZRIXIXnIxcv8ydCSID-7" target="rYZRIXIXnIxcv8ydCSID-39" edge="1">
          <mxGeometry width="50" height="50" relative="1" as="geometry">
            <mxPoint x="760" y="360" as="sourcePoint" />
            <mxPoint x="810" y="310" as="targetPoint" />
          </mxGeometry>
        </mxCell>
        <mxCell id="rYZRIXIXnIxcv8ydCSID-41" value="Shortened &lt;br&gt;URLs Cache, with Stats" style="outlineConnect=0;dashed=0;verticalLabelPosition=bottom;verticalAlign=top;align=center;html=1;shape=mxgraph.aws3.redis;fillColor=#2E73B8;gradientColor=none;" parent="1" vertex="1">
          <mxGeometry x="1000" y="440" width="60" height="63" as="geometry" />
        </mxCell>
        <mxCell id="rYZRIXIXnIxcv8ydCSID-42" value="" style="endArrow=classic;html=1;rounded=0;exitX=0.75;exitY=1;exitDx=0;exitDy=0;entryX=1;entryY=0.5;entryDx=0;entryDy=0;entryPerimeter=0;edgeStyle=orthogonalEdgeStyle;" parent="1" source="rYZRIXIXnIxcv8ydCSID-39" target="rYZRIXIXnIxcv8ydCSID-48" edge="1">
          <mxGeometry width="50" height="50" relative="1" as="geometry">
            <mxPoint x="820" y="480" as="sourcePoint" />
            <mxPoint x="729" y="600" as="targetPoint" />
          </mxGeometry>
        </mxCell>
        <mxCell id="rYZRIXIXnIxcv8ydCSID-43" value="" style="endArrow=classic;html=1;rounded=0;exitX=0.25;exitY=1;exitDx=0;exitDy=0;entryX=0.5;entryY=0;entryDx=0;entryDy=0;entryPerimeter=0;edgeStyle=orthogonalEdgeStyle;" parent="1" source="rYZRIXIXnIxcv8ydCSID-39" target="rYZRIXIXnIxcv8ydCSID-41" edge="1">
          <mxGeometry width="50" height="50" relative="1" as="geometry">
            <mxPoint x="820" y="440" as="sourcePoint" />
            <mxPoint x="870" y="390" as="targetPoint" />
          </mxGeometry>
        </mxCell>
        <mxCell id="rYZRIXIXnIxcv8ydCSID-47" value="If key is NOT found in Cache. And then update Cache." style="text;html=1;strokeColor=none;fillColor=none;align=center;verticalAlign=middle;whiteSpace=wrap;rounded=0;" parent="1" vertex="1">
          <mxGeometry x="1092" y="370" width="90" height="30" as="geometry" />
        </mxCell>
        <mxCell id="rYZRIXIXnIxcv8ydCSID-48" value="DynomoDB" style="outlineConnect=0;dashed=0;verticalLabelPosition=bottom;verticalAlign=top;align=center;html=1;shape=mxgraph.aws3.dynamo_db;fillColor=#2E73B8;gradientColor=none;" parent="1" vertex="1">
          <mxGeometry x="644" y="540" width="72" height="81" as="geometry" />
        </mxCell>
        <mxCell id="Kd8ZF33_mOnIc2gCghtx-1" value="Cleanup Service ( of Expired Keys )" style="rounded=1;whiteSpace=wrap;html=1;fillColor=#f8cecc;strokeColor=#b85450;" vertex="1" parent="1">
          <mxGeometry x="740" y="650" width="120" height="60" as="geometry" />
        </mxCell>
        <mxCell id="Kd8ZF33_mOnIc2gCghtx-2" value="" style="endArrow=classic;html=1;rounded=0;exitX=0.5;exitY=0;exitDx=0;exitDy=0;edgeStyle=orthogonalEdgeStyle;" edge="1" parent="1" source="Kd8ZF33_mOnIc2gCghtx-1" target="rYZRIXIXnIxcv8ydCSID-48">
          <mxGeometry width="50" height="50" relative="1" as="geometry">
            <mxPoint x="740" y="640" as="sourcePoint" />
            <mxPoint x="790" y="590" as="targetPoint" />
          </mxGeometry>
        </mxCell>
        <mxCell id="Kd8ZF33_mOnIc2gCghtx-3" value="Update Expired Keys Service" style="rounded=1;whiteSpace=wrap;html=1;fillColor=#e1d5e7;strokeColor=#9673a6;" vertex="1" parent="1">
          <mxGeometry x="468" y="640" width="160" height="60" as="geometry" />
        </mxCell>
        <mxCell id="Kd8ZF33_mOnIc2gCghtx-4" value="" style="endArrow=classic;html=1;rounded=0;exitX=1;exitY=0.5;exitDx=0;exitDy=0;edgeStyle=orthogonalEdgeStyle;" edge="1" parent="1" source="Kd8ZF33_mOnIc2gCghtx-3" target="rYZRIXIXnIxcv8ydCSID-48">
          <mxGeometry width="50" height="50" relative="1" as="geometry">
            <mxPoint x="450" y="640" as="sourcePoint" />
            <mxPoint x="500" y="590" as="targetPoint" />
          </mxGeometry>
        </mxCell>
        <mxCell id="Kd8ZF33_mOnIc2gCghtx-5" value="" style="endArrow=classic;html=1;rounded=0;exitX=0.7;exitY=0;exitDx=0;exitDy=0;exitPerimeter=0;edgeStyle=orthogonalEdgeStyle;" edge="1" parent="1" source="Kd8ZF33_mOnIc2gCghtx-3" target="rYZRIXIXnIxcv8ydCSID-20">
          <mxGeometry width="50" height="50" relative="1" as="geometry">
            <mxPoint x="450" y="640" as="sourcePoint" />
            <mxPoint x="500" y="590" as="targetPoint" />
          </mxGeometry>
        </mxCell>
      </root>
    </mxGraphModel>
  </diagram>
</mxfile>
